<mxfile host="app.diagrams.net" modified="2023-05-30T20:34:28.879Z" agent="Mozilla/5.0 (Windows NT 10.0; Win64; x64; rv:109.0) Gecko/20100101 Firefox/113.0" etag="bqnSaG9fSJuAm9ktMYFL" version="21.3.5" type="github">
  <diagram name="Page-1" id="2YBvvXClWsGukQMizWep">
    <mxGraphModel dx="1000" dy="505" grid="0" gridSize="10" guides="1" tooltips="1" connect="1" arrows="1" fold="1" page="0" pageScale="1" pageWidth="850" pageHeight="1100" math="0" shadow="0">
      <root>
        <mxCell id="0" />
        <mxCell id="1" parent="0" />
        <mxCell id="Chgh_PdhHyW66dv8v_kR-1" value="ProjectController" style="shape=umlLifeline;perimeter=lifelinePerimeter;whiteSpace=wrap;html=1;container=0;dropTarget=0;collapsible=0;recursiveResize=0;outlineConnect=0;portConstraint=eastwest;newEdgeStyle={&quot;edgeStyle&quot;:&quot;elbowEdgeStyle&quot;,&quot;elbow&quot;:&quot;vertical&quot;,&quot;curved&quot;:0,&quot;rounded&quot;:0};" vertex="1" parent="1">
          <mxGeometry x="145" y="60" width="100" height="640" as="geometry" />
        </mxCell>
        <mxCell id="Chgh_PdhHyW66dv8v_kR-2" value="1:updateProject" style="html=1;verticalAlign=bottom;startArrow=oval;endArrow=block;startSize=8;edgeStyle=elbowEdgeStyle;elbow=vertical;curved=0;rounded=0;" edge="1" parent="Chgh_PdhHyW66dv8v_kR-1">
          <mxGeometry relative="1" as="geometry">
            <mxPoint x="-45" y="70" as="sourcePoint" />
            <mxPoint x="45" y="70" as="targetPoint" />
          </mxGeometry>
        </mxCell>
        <mxCell id="Chgh_PdhHyW66dv8v_kR-3" value="ProjectService" style="shape=umlLifeline;perimeter=lifelinePerimeter;whiteSpace=wrap;html=1;container=0;dropTarget=0;collapsible=0;recursiveResize=0;outlineConnect=0;portConstraint=eastwest;newEdgeStyle={&quot;edgeStyle&quot;:&quot;elbowEdgeStyle&quot;,&quot;elbow&quot;:&quot;vertical&quot;,&quot;curved&quot;:0,&quot;rounded&quot;:0};" vertex="1" parent="1">
          <mxGeometry x="435" y="60" width="100" height="650" as="geometry" />
        </mxCell>
        <mxCell id="Chgh_PdhHyW66dv8v_kR-11" value="" style="html=1;points=[];perimeter=orthogonalPerimeter;outlineConnect=0;targetShapes=umlLifeline;portConstraint=eastwest;newEdgeStyle={&quot;edgeStyle&quot;:&quot;elbowEdgeStyle&quot;,&quot;elbow&quot;:&quot;vertical&quot;,&quot;curved&quot;:0,&quot;rounded&quot;:0};" vertex="1" parent="Chgh_PdhHyW66dv8v_kR-3">
          <mxGeometry x="45" y="90" width="10" height="480" as="geometry" />
        </mxCell>
        <mxCell id="Chgh_PdhHyW66dv8v_kR-4" value="IProjectRepository" style="shape=umlLifeline;perimeter=lifelinePerimeter;whiteSpace=wrap;html=1;container=0;dropTarget=0;collapsible=0;recursiveResize=0;outlineConnect=0;portConstraint=eastwest;newEdgeStyle={&quot;edgeStyle&quot;:&quot;elbowEdgeStyle&quot;,&quot;elbow&quot;:&quot;vertical&quot;,&quot;curved&quot;:0,&quot;rounded&quot;:0};" vertex="1" parent="1">
          <mxGeometry x="690" y="60" width="100" height="640" as="geometry" />
        </mxCell>
        <mxCell id="Chgh_PdhHyW66dv8v_kR-13" value="" style="html=1;points=[];perimeter=orthogonalPerimeter;outlineConnect=0;targetShapes=umlLifeline;portConstraint=eastwest;newEdgeStyle={&quot;edgeStyle&quot;:&quot;elbowEdgeStyle&quot;,&quot;elbow&quot;:&quot;vertical&quot;,&quot;curved&quot;:0,&quot;rounded&quot;:0};" vertex="1" parent="Chgh_PdhHyW66dv8v_kR-4">
          <mxGeometry x="45" y="120" width="10" height="20" as="geometry" />
        </mxCell>
        <mxCell id="Chgh_PdhHyW66dv8v_kR-57" value="" style="html=1;points=[];perimeter=orthogonalPerimeter;outlineConnect=0;targetShapes=umlLifeline;portConstraint=eastwest;newEdgeStyle={&quot;edgeStyle&quot;:&quot;elbowEdgeStyle&quot;,&quot;elbow&quot;:&quot;vertical&quot;,&quot;curved&quot;:0,&quot;rounded&quot;:0};" vertex="1" parent="Chgh_PdhHyW66dv8v_kR-4">
          <mxGeometry x="45" y="300" width="10" height="20" as="geometry" />
        </mxCell>
        <mxCell id="Chgh_PdhHyW66dv8v_kR-8" value="" style="html=1;points=[];perimeter=orthogonalPerimeter;outlineConnect=0;targetShapes=umlLifeline;portConstraint=eastwest;newEdgeStyle={&quot;edgeStyle&quot;:&quot;elbowEdgeStyle&quot;,&quot;elbow&quot;:&quot;vertical&quot;,&quot;curved&quot;:0,&quot;rounded&quot;:0};" vertex="1" parent="1">
          <mxGeometry x="190" y="130" width="10" height="460" as="geometry" />
        </mxCell>
        <mxCell id="Chgh_PdhHyW66dv8v_kR-15" value="" style="endArrow=classic;html=1;rounded=0;" edge="1" parent="1" target="Chgh_PdhHyW66dv8v_kR-11">
          <mxGeometry width="50" height="50" relative="1" as="geometry">
            <mxPoint x="200" y="150" as="sourcePoint" />
            <mxPoint x="430" y="160" as="targetPoint" />
            <Array as="points">
              <mxPoint x="310" y="150" />
              <mxPoint x="330" y="150" />
            </Array>
          </mxGeometry>
        </mxCell>
        <mxCell id="Chgh_PdhHyW66dv8v_kR-35" value="1.1:updateProject" style="edgeLabel;html=1;align=center;verticalAlign=middle;resizable=0;points=[];" vertex="1" connectable="0" parent="Chgh_PdhHyW66dv8v_kR-15">
          <mxGeometry x="-0.3244" y="1" relative="1" as="geometry">
            <mxPoint x="24" y="-9" as="offset" />
          </mxGeometry>
        </mxCell>
        <mxCell id="Chgh_PdhHyW66dv8v_kR-17" value="" style="endArrow=classic;html=1;rounded=0;" edge="1" parent="1" source="Chgh_PdhHyW66dv8v_kR-11" target="Chgh_PdhHyW66dv8v_kR-13">
          <mxGeometry width="50" height="50" relative="1" as="geometry">
            <mxPoint x="440" y="180" as="sourcePoint" />
            <mxPoint x="620" y="180" as="targetPoint" />
            <Array as="points">
              <mxPoint x="550" y="180" />
            </Array>
          </mxGeometry>
        </mxCell>
        <mxCell id="Chgh_PdhHyW66dv8v_kR-18" value="1.1.1:getProjectById" style="edgeLabel;html=1;align=center;verticalAlign=middle;resizable=0;points=[];" vertex="1" connectable="0" parent="Chgh_PdhHyW66dv8v_kR-17">
          <mxGeometry x="-0.7107" relative="1" as="geometry">
            <mxPoint x="47" y="-10" as="offset" />
          </mxGeometry>
        </mxCell>
        <mxCell id="Chgh_PdhHyW66dv8v_kR-19" value="" style="endArrow=classic;html=1;rounded=0;dashed=1;" edge="1" parent="1" source="Chgh_PdhHyW66dv8v_kR-13" target="Chgh_PdhHyW66dv8v_kR-11">
          <mxGeometry width="50" height="50" relative="1" as="geometry">
            <mxPoint x="320" y="190" as="sourcePoint" />
            <mxPoint x="440" y="200" as="targetPoint" />
            <Array as="points">
              <mxPoint x="510" y="200" />
            </Array>
          </mxGeometry>
        </mxCell>
        <mxCell id="Chgh_PdhHyW66dv8v_kR-36" value="alt" style="shape=umlFrame;whiteSpace=wrap;html=1;pointerEvents=0;" vertex="1" parent="1">
          <mxGeometry x="210" y="210" width="590" height="250" as="geometry" />
        </mxCell>
        <mxCell id="Chgh_PdhHyW66dv8v_kR-37" value="[if originalProjectDates != newProjectDates]" style="text;html=1;align=center;verticalAlign=middle;resizable=0;points=[];autosize=1;strokeColor=none;fillColor=none;" vertex="1" parent="1">
          <mxGeometry x="220" y="240" width="250" height="30" as="geometry" />
        </mxCell>
        <mxCell id="Chgh_PdhHyW66dv8v_kR-38" value="" style="html=1;points=[];perimeter=orthogonalPerimeter;outlineConnect=0;targetShapes=umlLifeline;portConstraint=eastwest;newEdgeStyle={&quot;edgeStyle&quot;:&quot;elbowEdgeStyle&quot;,&quot;elbow&quot;:&quot;vertical&quot;,&quot;curved&quot;:0,&quot;rounded&quot;:0};" vertex="1" parent="1">
          <mxGeometry x="735" y="240" width="10" height="20" as="geometry" />
        </mxCell>
        <mxCell id="Chgh_PdhHyW66dv8v_kR-39" value="" style="endArrow=classic;html=1;rounded=0;" edge="1" parent="1" target="Chgh_PdhHyW66dv8v_kR-38">
          <mxGeometry width="50" height="50" relative="1" as="geometry">
            <mxPoint x="490" y="240" as="sourcePoint" />
            <mxPoint x="620" y="240" as="targetPoint" />
            <Array as="points">
              <mxPoint x="550" y="240" />
            </Array>
          </mxGeometry>
        </mxCell>
        <mxCell id="Chgh_PdhHyW66dv8v_kR-40" value="1.1.2:updateProject" style="edgeLabel;html=1;align=center;verticalAlign=middle;resizable=0;points=[];" vertex="1" connectable="0" parent="Chgh_PdhHyW66dv8v_kR-39">
          <mxGeometry x="-0.7107" relative="1" as="geometry">
            <mxPoint x="47" y="-10" as="offset" />
          </mxGeometry>
        </mxCell>
        <mxCell id="Chgh_PdhHyW66dv8v_kR-41" value="" style="endArrow=classic;html=1;rounded=0;dashed=1;" edge="1" parent="1" source="Chgh_PdhHyW66dv8v_kR-38">
          <mxGeometry width="50" height="50" relative="1" as="geometry">
            <mxPoint x="320" y="250" as="sourcePoint" />
            <mxPoint x="490" y="260" as="targetPoint" />
            <Array as="points">
              <mxPoint x="510" y="260" />
            </Array>
          </mxGeometry>
        </mxCell>
        <mxCell id="Chgh_PdhHyW66dv8v_kR-45" style="edgeStyle=elbowEdgeStyle;rounded=0;orthogonalLoop=1;jettySize=auto;html=1;elbow=vertical;curved=0;entryX=0;entryY=0.429;entryDx=0;entryDy=0;entryPerimeter=0;" edge="1" parent="1" source="Chgh_PdhHyW66dv8v_kR-11">
          <mxGeometry relative="1" as="geometry">
            <mxPoint x="490" y="310.03" as="targetPoint" />
            <Array as="points">
              <mxPoint x="490" y="340" />
            </Array>
          </mxGeometry>
        </mxCell>
        <mxCell id="Chgh_PdhHyW66dv8v_kR-53" value="" style="html=1;points=[];perimeter=orthogonalPerimeter;outlineConnect=0;targetShapes=umlLifeline;portConstraint=eastwest;newEdgeStyle={&quot;edgeStyle&quot;:&quot;elbowEdgeStyle&quot;,&quot;elbow&quot;:&quot;vertical&quot;,&quot;curved&quot;:0,&quot;rounded&quot;:0};" vertex="1" parent="1">
          <mxGeometry x="490" y="300" width="10" height="50" as="geometry" />
        </mxCell>
        <mxCell id="Chgh_PdhHyW66dv8v_kR-54" style="edgeStyle=elbowEdgeStyle;rounded=0;orthogonalLoop=1;jettySize=auto;html=1;elbow=vertical;curved=0;" edge="1" parent="1" source="Chgh_PdhHyW66dv8v_kR-53" target="Chgh_PdhHyW66dv8v_kR-53">
          <mxGeometry relative="1" as="geometry">
            <Array as="points">
              <mxPoint x="670" y="320" />
            </Array>
          </mxGeometry>
        </mxCell>
        <mxCell id="Chgh_PdhHyW66dv8v_kR-56" value="1.1.3:updateTaskAndSubtaskDates" style="edgeLabel;html=1;align=center;verticalAlign=middle;resizable=0;points=[];" vertex="1" connectable="0" parent="Chgh_PdhHyW66dv8v_kR-54">
          <mxGeometry x="-0.6972" y="1" relative="1" as="geometry">
            <mxPoint x="55" y="-14" as="offset" />
          </mxGeometry>
        </mxCell>
        <mxCell id="Chgh_PdhHyW66dv8v_kR-55" value="" style="html=1;points=[];perimeter=orthogonalPerimeter;outlineConnect=0;targetShapes=umlLifeline;portConstraint=eastwest;newEdgeStyle={&quot;edgeStyle&quot;:&quot;elbowEdgeStyle&quot;,&quot;elbow&quot;:&quot;vertical&quot;,&quot;curved&quot;:0,&quot;rounded&quot;:0};" vertex="1" parent="1">
          <mxGeometry x="490" y="300" width="10" height="150" as="geometry" />
        </mxCell>
        <mxCell id="Chgh_PdhHyW66dv8v_kR-58" value="" style="endArrow=classic;html=1;rounded=0;" edge="1" parent="1" target="Chgh_PdhHyW66dv8v_kR-57" source="Chgh_PdhHyW66dv8v_kR-55">
          <mxGeometry width="50" height="50" relative="1" as="geometry">
            <mxPoint x="490" y="360" as="sourcePoint" />
            <mxPoint x="620" y="360" as="targetPoint" />
            <Array as="points">
              <mxPoint x="550" y="360" />
            </Array>
          </mxGeometry>
        </mxCell>
        <mxCell id="Chgh_PdhHyW66dv8v_kR-59" value="1.1.3.1:getTaskAndSubtaskList" style="edgeLabel;html=1;align=center;verticalAlign=middle;resizable=0;points=[];" vertex="1" connectable="0" parent="Chgh_PdhHyW66dv8v_kR-58">
          <mxGeometry x="-0.7107" relative="1" as="geometry">
            <mxPoint x="66" y="-10" as="offset" />
          </mxGeometry>
        </mxCell>
        <mxCell id="Chgh_PdhHyW66dv8v_kR-60" value="" style="endArrow=classic;html=1;rounded=0;dashed=1;" edge="1" parent="1" source="Chgh_PdhHyW66dv8v_kR-57" target="Chgh_PdhHyW66dv8v_kR-55">
          <mxGeometry width="50" height="50" relative="1" as="geometry">
            <mxPoint x="320" y="370" as="sourcePoint" />
            <mxPoint x="490" y="380" as="targetPoint" />
            <Array as="points">
              <mxPoint x="510" y="380" />
            </Array>
          </mxGeometry>
        </mxCell>
        <mxCell id="Chgh_PdhHyW66dv8v_kR-65" value="" style="html=1;points=[];perimeter=orthogonalPerimeter;outlineConnect=0;targetShapes=umlLifeline;portConstraint=eastwest;newEdgeStyle={&quot;edgeStyle&quot;:&quot;elbowEdgeStyle&quot;,&quot;elbow&quot;:&quot;vertical&quot;,&quot;curved&quot;:0,&quot;rounded&quot;:0};" vertex="1" parent="1">
          <mxGeometry x="735" y="410" width="10" height="20" as="geometry" />
        </mxCell>
        <mxCell id="Chgh_PdhHyW66dv8v_kR-66" value="" style="endArrow=classic;html=1;rounded=0;" edge="1" parent="1" target="Chgh_PdhHyW66dv8v_kR-65">
          <mxGeometry width="50" height="50" relative="1" as="geometry">
            <mxPoint x="500" y="410" as="sourcePoint" />
            <mxPoint x="620" y="410" as="targetPoint" />
            <Array as="points">
              <mxPoint x="550" y="410" />
            </Array>
          </mxGeometry>
        </mxCell>
        <mxCell id="Chgh_PdhHyW66dv8v_kR-67" value="1.1.3.2:updateTaskAndSubtaskDates" style="edgeLabel;html=1;align=center;verticalAlign=middle;resizable=0;points=[];" vertex="1" connectable="0" parent="Chgh_PdhHyW66dv8v_kR-66">
          <mxGeometry x="-0.7107" relative="1" as="geometry">
            <mxPoint x="66" y="-10" as="offset" />
          </mxGeometry>
        </mxCell>
        <mxCell id="Chgh_PdhHyW66dv8v_kR-68" value="" style="endArrow=classic;html=1;rounded=0;dashed=1;" edge="1" parent="1" source="Chgh_PdhHyW66dv8v_kR-65">
          <mxGeometry width="50" height="50" relative="1" as="geometry">
            <mxPoint x="320" y="420" as="sourcePoint" />
            <mxPoint x="500" y="430" as="targetPoint" />
            <Array as="points">
              <mxPoint x="510" y="430" />
            </Array>
          </mxGeometry>
        </mxCell>
        <mxCell id="Chgh_PdhHyW66dv8v_kR-69" value="" style="html=1;whiteSpace=wrap;fillColor=none;" vertex="1" parent="1">
          <mxGeometry x="210" y="460" width="590" height="160" as="geometry" />
        </mxCell>
        <mxCell id="Chgh_PdhHyW66dv8v_kR-70" value="" style="html=1;points=[];perimeter=orthogonalPerimeter;outlineConnect=0;targetShapes=umlLifeline;portConstraint=eastwest;newEdgeStyle={&quot;edgeStyle&quot;:&quot;elbowEdgeStyle&quot;,&quot;elbow&quot;:&quot;vertical&quot;,&quot;curved&quot;:0,&quot;rounded&quot;:0};" vertex="1" parent="1">
          <mxGeometry x="735" y="529" width="10" height="20" as="geometry" />
        </mxCell>
        <mxCell id="Chgh_PdhHyW66dv8v_kR-71" value="" style="endArrow=classic;html=1;rounded=0;" edge="1" parent="1" target="Chgh_PdhHyW66dv8v_kR-70">
          <mxGeometry width="50" height="50" relative="1" as="geometry">
            <mxPoint x="490" y="529" as="sourcePoint" />
            <mxPoint x="620" y="529" as="targetPoint" />
            <Array as="points">
              <mxPoint x="550" y="529" />
            </Array>
          </mxGeometry>
        </mxCell>
        <mxCell id="Chgh_PdhHyW66dv8v_kR-72" value="1.1.2:updateProject" style="edgeLabel;html=1;align=center;verticalAlign=middle;resizable=0;points=[];" vertex="1" connectable="0" parent="Chgh_PdhHyW66dv8v_kR-71">
          <mxGeometry x="-0.7107" relative="1" as="geometry">
            <mxPoint x="47" y="-10" as="offset" />
          </mxGeometry>
        </mxCell>
        <mxCell id="Chgh_PdhHyW66dv8v_kR-73" value="" style="endArrow=classic;html=1;rounded=0;dashed=1;" edge="1" parent="1" source="Chgh_PdhHyW66dv8v_kR-70">
          <mxGeometry width="50" height="50" relative="1" as="geometry">
            <mxPoint x="320" y="539" as="sourcePoint" />
            <mxPoint x="490" y="549" as="targetPoint" />
            <Array as="points">
              <mxPoint x="510" y="549" />
            </Array>
          </mxGeometry>
        </mxCell>
        <mxCell id="Chgh_PdhHyW66dv8v_kR-74" value="" style="endArrow=classic;html=1;rounded=0;dashed=1;" edge="1" parent="1" source="Chgh_PdhHyW66dv8v_kR-11" target="Chgh_PdhHyW66dv8v_kR-8">
          <mxGeometry width="50" height="50" relative="1" as="geometry">
            <mxPoint x="475" y="570" as="sourcePoint" />
            <mxPoint x="230" y="570" as="targetPoint" />
            <Array as="points">
              <mxPoint x="250" y="570" />
            </Array>
          </mxGeometry>
        </mxCell>
        <mxCell id="Chgh_PdhHyW66dv8v_kR-75" value="[else]" style="text;html=1;strokeColor=none;fillColor=none;align=center;verticalAlign=middle;whiteSpace=wrap;rounded=0;" vertex="1" parent="1">
          <mxGeometry x="220" y="470" width="60" height="30" as="geometry" />
        </mxCell>
      </root>
    </mxGraphModel>
  </diagram>
</mxfile>
